<svg width="3263" height="1241" viewBox="0 0 3263 1241" fill="none" xmlns="http://www.w3.org/2000/svg">
<path d="M2240.26 1205.26C2227.37 1210.61 2200.62 1217.89 2180.77 1221.43C2146.49 1227.55 2046.01 1235 2010.7 1234L1994.23 1233.54L2007.51 1221.69C2099.02 1140.09 2807.28 541.592 2838.08 519.84C2845.47 514.623 2861.4 497.062 2873.49 480.871C2890.24 458.452 2896.66 446.045 2900.26 429.234C2912.47 372.708 2884.13 325.093 2822.79 299.033C2780.29 280.94 2769.17 280.071 2556.89 278.322C2517.82 277.986 2371.64 276.36 2260.23 275.027C2220.48 274.567 2149.55 273.885 2102.67 273.569C2055.79 273.216 2008.25 272.663 1996.98 272.297C1977.33 271.626 1873.36 270.253 1752.14 268.971C1720.52 268.666 1641.59 267.663 1576.67 266.776C1511.79 265.885 1447.53 265.163 1433.9 265.174C1420.28 265.186 1382.43 264.821 1349.78 264.368C1270.36 263.251 1181.94 262.215 1125.41 261.706C1099.91 261.477 1051.56 261.003 1017.88 260.588C984.213 260.209 882.407 259.226 791.58 258.391C616.525 256.765 595.433 255.564 550.3 244.814C510.418 235.302 489.92 227.979 438.773 205.106C414.262 194.107 370.163 174.396 340.793 161.288C311.418 148.143 249.027 120.235 202.226 99.2487C155.425 78.2628 92.1673 49.9983 61.7033 36.4934C-6.31985 6.25385 -8.47288 4.93681 9.74965 4.22172C58.9718 2.3101 525.666 0.442811 1026.43 0.155431L1361.46 0.00123337C1411.32 -0.0410707 1461.34 0.190934 1472.6 0.484592C1483.86 0.81451 1567.21 1.14076 1657.82 1.26602C1748.43 1.35503 1890.08 1.63773 1972.6 1.82576C2055.11 2.05004 2179.26 2.35212 2248.51 2.4992C2317.77 2.68253 2401.92 2.92951 2435.56 3.09051C2625.51 4.00247 2758.67 4.47824 2837.46 4.53895C2934.77 4.61979 2973.29 8.33085 3026.34 22.5992C3080.59 37.2123 3118.69 55.6817 3162.59 88.529C3222.79 133.562 3250.64 176.805 3259.82 239.376C3266.04 281.791 3260.85 315.752 3241.92 356.554C3213.36 418.04 3197.87 433.761 3031.63 569.396C2949.06 636.782 2865.16 705.472 2845.16 721.994C2722.65 823.452 2320.47 1152.03 2294.65 1171.8C2277.58 1184.86 2253.11 1199.92 2240.26 1205.26ZM1823.4 1207.94C1805.74 1218.42 1796.55 1221.12 1755.92 1227.71C1720.62 1233.46 1630.52 1240.96 1604.15 1240.37C1601.44 1240.32 1625.06 1219.35 1750.45 1110.48C1813.56 1055.69 1886.63 992.008 1912.8 968.965C1938.97 945.886 2007.82 886.263 2065.76 836.44C2172.12 744.984 2189.03 728.503 2195.77 709.349C2201.19 693.902 2196.08 666.061 2185.45 653.2C2174.4 639.843 2145.04 626.289 2119.98 622.961C2109.6 621.613 2052.7 619.825 1993.53 619.031C1934.36 618.237 1860.91 617.217 1830.3 616.765C1799.7 616.349 1742.09 615.588 1702.34 615.165C1662.59 614.705 1568.24 613.307 1492.72 612.069C1417.2 610.831 1313.57 609.26 1262.41 608.564C1123.16 606.711 1092.19 599.944 966.367 543.833C923.897 524.885 875.825 503.565 859.541 496.447C843.256 489.329 802.269 471.166 768.548 456.133C734.821 441.065 689.913 421.137 668.759 411.837C647.641 402.531 630.908 394.108 631.657 393.148C632.37 392.193 646.763 391.367 663.64 391.328C712.301 391.164 978.887 393.374 1028.01 394.328C1052.51 394.776 1105.07 395.49 1144.86 395.909C1258.39 397.118 1391.77 399.303 1697.8 404.943C1809.06 407.037 1946.07 409.547 2002.2 410.56C2314.27 416.213 2399.58 418.329 2418.35 420.903C2448.23 424.978 2494.22 441.898 2518.81 457.845C2577.57 495.907 2587.53 563.658 2542.87 621.331C2526.47 642.551 2514.42 652.664 2262.94 855.851C2203.68 903.719 2085.17 999.785 1999.54 1069.35C1913.92 1138.92 1834.65 1201.28 1823.4 1207.94Z" fill="white"/>
</svg>
